<?xml version="1.0" standalone="no"?>
<!DOCTYPE svg PUBLIC "-//W3C//DTD SVG 20010904//EN"
 "http://www.w3.org/TR/2001/REC-SVG-20010904/DTD/svg10.dtd">
<svg version="1.0" xmlns="http://www.w3.org/2000/svg"
 width="500.000000pt" height="500.000000pt" viewBox="0 0 500.000000 500.000000"
 preserveAspectRatio="xMidYMid meet">

<g transform="translate(0.000000,500.000000) scale(0.100000,-0.100000)"
fill="#000000" stroke="none">
<path d="M474 2817 c-3 -8 -4 -54 -2 -103 l3 -89 308 -109 c238 -84 313 -107
325 -99 13 8 18 29 20 86 4 112 10 108 -327 227 -156 55 -292 100 -303 100
-10 0 -21 -6 -24 -13z"/>
<path d="M1715 2626 c-65 -28 -75 -138 -16 -183 17 -13 79 -17 105 -7 9 3 16
14 16 24 0 15 -6 17 -40 13 -30 -4 -45 -1 -60 12 -26 24 -25 70 1 96 17 17 29
20 60 15 31 -5 39 -3 39 9 0 17 -30 35 -57 35 -10 -1 -32 -7 -48 -14z"/>
<path d="M1195 2535 c19 -53 35 -98 35 -100 0 -3 8 -5 18 -5 14 0 25 21 46 88
16 48 31 93 34 100 3 10 -2 13 -18 10 -18 -2 -26 -14 -37 -53 -8 -27 -18 -54
-22 -58 -4 -4 -16 20 -26 53 -15 51 -22 60 -41 60 l-23 0 34 -95z"/>
<path d="M1340 2615 c0 -9 9 -15 25 -15 25 0 25 -1 25 -85 0 -84 0 -85 25 -85
25 0 25 1 25 85 0 84 0 85 25 85 16 0 25 6 25 15 0 12 -15 15 -75 15 -60 0
-75 -3 -75 -15z"/>
<path d="M1520 2530 l0 -100 60 0 c53 0 60 2 60 20 0 17 -7 20 -40 20 -36 0
-40 3 -40 25 0 21 5 25 30 25 23 0 30 4 30 20 0 16 -7 20 -30 20 -23 0 -30 4
-30 20 0 16 7 20 35 20 24 0 35 5 35 15 0 12 -13 15 -55 15 l-55 0 0 -100z"/>
<path d="M1860 2530 c0 -93 1 -100 20 -100 17 0 20 7 20 45 0 45 0 45 35 45
35 0 35 0 35 -45 0 -38 3 -45 20 -45 19 0 20 7 20 100 0 93 -1 100 -20 100
-17 0 -20 -7 -20 -40 0 -39 -1 -40 -35 -40 -34 0 -35 1 -35 40 0 33 -3 40 -20
40 -19 0 -20 -7 -20 -100z"/>
<path d="M2257 2543 c-11 -10 -8 -103 3 -103 6 0 10 25 10 55 0 56 -1 60 -13
48z"/>
<path d="M2460 2539 c0 -5 11 -9 25 -9 33 0 33 15 0 16 -14 1 -25 -2 -25 -7z"/>
<path d="M3275 2540 c-4 -6 6 -10 22 -10 22 0 25 2 13 10 -19 12 -27 12 -35 0z"/>
<path d="M4023 2495 c0 -33 2 -45 4 -27 2 18 2 45 0 60 -2 15 -4 0 -4 -33z"/>
<path d="M2087 2533 c-16 -15 -6 -43 18 -49 32 -8 27 -30 -6 -26 -17 2 -21 0
-12 -9 6 -6 21 -9 34 -7 31 4 32 39 1 53 -28 12 -23 31 8 27 14 -2 20 0 16 7
-8 12 -49 15 -59 4z"/>
<path d="M2968 2515 c-17 -38 3 -75 42 -75 25 0 30 4 30 25 0 17 -5 25 -17 25
-15 0 -16 -2 -3 -10 12 -7 12 -12 3 -21 -9 -9 -16 -9 -28 1 -31 26 -7 78 30
63 13 -4 16 -3 11 5 -13 22 -56 14 -68 -13z"/>
<path d="M3218 2523 c-8 -35 6 -78 27 -81 15 -2 17 -1 6 6 -9 7 -12 20 -8 40
7 34 -17 67 -25 35z"/>
<path d="M3483 2525 c-3 -9 -3 -19 1 -22 3 -3 1 -12 -5 -19 -19 -23 -2 -44 36
-44 32 0 35 3 34 28 0 15 -3 21 -6 14 -9 -23 -22 -1 -16 28 5 26 2 30 -16 30
-12 0 -24 -7 -28 -15z m32 -56 c10 -15 -1 -23 -20 -15 -9 3 -13 10 -10 16 8
13 22 13 30 -1z"/>
<path d="M3613 2526 c11 -8 17 -27 17 -50 0 -20 5 -36 10 -36 6 0 10 18 10 40
0 29 4 40 15 40 8 0 15 5 15 10 0 6 -19 10 -42 10 -38 -1 -41 -2 -25 -14z"/>
<path d="M2182 2511 c-8 -5 -12 -21 -10 -37 2 -23 8 -29 28 -29 20 0 26 6 28
29 3 25 -10 46 -28 46 -3 0 -11 -4 -18 -9z m33 -36 c0 -28 -29 -25 -33 3 -3
19 0 23 15 20 10 -2 18 -12 18 -23z"/>
<path d="M2338 2488 c-4 -42 -28 -50 -28 -9 0 17 -5 31 -11 31 -6 0 -9 -14 -7
-32 3 -28 7 -33 31 -34 25 -1 27 2 27 37 0 47 -8 51 -12 7z"/>
<path d="M2378 2495 c-10 -22 -8 -29 11 -49 17 -18 19 -25 9 -29 -9 -4 -7 -6
5 -6 9 -1 17 3 17 8 0 5 3 16 6 24 4 10 -1 15 -13 14 -12 -1 -19 6 -21 21 -3
17 2 22 18 22 12 0 18 5 15 10 -11 18 -35 10 -47 -15z"/>
<path d="M2460 2506 c-17 -21 -8 -60 14 -64 18 -4 46 21 46 39 0 10 -29 39
-39 39 -5 0 -14 -7 -21 -14z m40 -25 c0 -11 -5 -23 -11 -27 -15 -9 -33 12 -26
30 9 23 37 20 37 -3z"/>
<path d="M2540 2500 c-16 -30 -3 -60 26 -60 13 0 24 4 24 10 0 5 -6 7 -14 4
-8 -3 -17 -1 -21 5 -3 7 2 11 14 11 26 0 36 17 21 35 -17 21 -37 19 -50 -5z
m37 -6 c-3 -3 -12 -4 -19 -1 -8 3 -5 6 6 6 11 1 17 -2 13 -5z"/>
<path d="M2621 2511 c-17 -11 -7 -41 14 -41 8 0 15 -5 15 -11 0 -6 -9 -8 -20
-4 -11 4 -20 2 -20 -4 0 -15 47 -14 56 0 4 7 -4 20 -17 30 -20 16 -21 19 -6
19 10 0 15 5 12 10 -8 12 -16 12 -34 1z"/>
<path d="M2731 2506 c-21 -26 -10 -61 22 -64 15 -2 27 1 27 6 0 6 -9 8 -20 5
-11 -3 -20 0 -20 6 0 6 9 11 21 11 15 0 20 5 17 22 -4 27 -30 35 -47 14z m36
-12 c-3 -3 -12 -4 -19 -1 -8 3 -5 6 6 6 11 1 17 -2 13 -5z"/>
<path d="M2818 2512 c-13 -2 -18 -13 -18 -38 0 -19 5 -34 10 -34 6 0 10 14 10
30 0 43 30 41 31 -2 l1 -33 7 29 c9 41 31 46 31 7 0 -17 5 -31 10 -31 12 0 13
50 2 65 -7 10 -53 14 -84 7z"/>
<path d="M3070 2500 c-16 -30 -3 -60 26 -60 13 0 24 4 24 10 0 5 -6 7 -14 4
-8 -3 -17 -1 -21 5 -3 7 2 11 14 11 26 0 36 17 21 35 -17 21 -37 19 -50 -5z
m37 -6 c-3 -3 -12 -4 -19 -1 -8 3 -5 6 6 6 11 1 17 -2 13 -5z"/>
<path d="M3150 2506 c-9 -12 -7 -17 9 -28 24 -15 28 -33 6 -24 -8 3 -15 1 -15
-4 0 -14 37 -12 46 1 4 7 -4 20 -17 30 l-24 19 25 0 c20 0 22 2 10 10 -20 13
-26 12 -40 -4z"/>
<path d="M3275 2510 c-3 -6 4 -10 17 -11 l23 0 -22 -11 c-35 -17 -30 -48 7
-48 27 0 30 3 30 34 0 39 -38 64 -55 36z m32 -57 c-3 -3 -11 -2 -17 2 -9 6 -9
10 1 16 14 8 27 -7 16 -18z"/>
<path d="M3360 2506 c-17 -21 -8 -60 14 -64 18 -4 46 21 46 39 0 10 -29 39
-39 39 -5 0 -14 -7 -21 -14z m40 -25 c0 -11 -5 -23 -11 -27 -15 -9 -33 12 -26
30 9 23 37 20 37 -3z"/>
<path d="M3700 2500 c-16 -30 -3 -60 26 -60 13 0 24 4 24 10 0 5 -6 7 -14 4
-8 -3 -17 -1 -21 5 -3 7 2 11 14 11 26 0 36 17 21 35 -17 21 -37 19 -50 -5z
m37 -6 c-3 -3 -12 -4 -19 -1 -8 3 -5 6 6 6 11 1 17 -2 13 -5z"/>
<path d="M3778 2495 c-8 -19 -8 -28 2 -40 13 -16 50 -21 50 -6 0 5 -8 8 -17 7
-12 0 -19 7 -21 22 -3 17 2 22 18 22 12 0 18 5 15 10 -11 18 -35 10 -47 -15z"/>
<path d="M3868 2513 c-13 -3 -18 -14 -18 -39 0 -19 5 -34 10 -34 6 0 10 14 10
30 0 42 27 40 33 -2 4 -28 4 -26 3 6 -1 40 -8 47 -38 39z"/>
<path d="M3938 2495 c-14 -30 5 -57 36 -53 39 6 29 78 -10 78 -8 0 -19 -11
-26 -25z m45 -8 c7 -19 -8 -41 -22 -33 -16 10 -14 46 3 46 8 0 16 -6 19 -13z"/>
<path d="M4072 2511 c-8 -5 -12 -21 -10 -37 2 -23 8 -29 28 -29 20 0 26 6 28
29 3 25 -10 46 -28 46 -3 0 -11 -4 -18 -9z m33 -36 c0 -28 -29 -25 -33 3 -3
19 0 23 15 20 10 -2 18 -12 18 -23z"/>
<path d="M4150 2506 c-19 -24 -9 -61 18 -60 32 1 27 -14 -5 -18 -23 -4 -25 -6
-10 -12 32 -15 47 0 47 48 0 31 -5 46 -16 50 -21 8 -20 8 -34 -8z m38 -28 c-4
-27 -23 -34 -32 -13 -8 21 1 35 20 35 10 0 14 -8 12 -22z"/>
<path d="M4233 2480 c0 -25 2 -35 4 -22 2 12 2 32 0 45 -2 12 -4 2 -4 -23z"/>
<path d="M4270 2510 c-12 -8 -8 -10 15 -11 l30 -1 -28 -10 c-36 -13 -32 -42 6
-46 27 -3 28 -2 25 35 -3 40 -20 51 -48 33z m31 -53 c-13 -13 -26 -3 -16 12 3
6 11 8 17 5 6 -4 6 -10 -1 -17z"/>
<path d="M580 2417 c-47 -18 -91 -36 -98 -40 -18 -12 -16 -181 2 -197 12 -9
62 5 253 72 131 46 237 88 237 93 0 11 -258 104 -289 104 -11 0 -58 -14 -105
-32z"/>
</g>
</svg>
